<?xml version="1.0" encoding="utf-8"?>
<!-- Generator: Adobe Illustrator 15.0.0, SVG Export Plug-In . SVG Version: 6.00 Build 0)  -->
<!DOCTYPE svg PUBLIC "-//W3C//DTD SVG 1.1//EN" "http://www.w3.org/Graphics/SVG/1.1/DTD/svg11.dtd">
<svg version="1.1" id="Layer_1" xmlns="http://www.w3.org/2000/svg" xmlns:xlink="http://www.w3.org/1999/xlink" x="0px" y="0px"
	 width="355.472px" height="198.772px" viewBox="0 0 355.472 198.772" enable-background="new 0 0 355.472 198.772"
	 xml:space="preserve">
<g>
	<path d="M35.124,188.533v10.239H0v-10.239h8.596v-44.039H1.424v-10.241h23.468v5.58c4.536-4.179,9.599-6.268,15.188-6.268
		c6.75,0,12.068,2.334,15.953,7.003c3.885,4.669,5.828,10.111,5.828,16.325c0,6.583-2.004,12.031-6.013,16.349
		c-4.008,4.317-9.352,6.474-16.032,6.474c-5.45,0-10.424-1.851-14.925-5.555v14.373H35.124z M45.144,156.617
		c0-3.887-0.923-6.796-2.769-8.725c-1.846-1.929-4.281-2.893-7.304-2.893c-3.059,0-5.547,0.987-7.463,2.962
		c-1.916,1.974-2.874,4.921-2.874,8.84c0,3.521,0.949,6.353,2.848,8.495c1.898,2.143,4.43,3.213,7.594,3.213
		c2.918,0,5.309-0.963,7.173-2.893C44.211,163.689,45.144,160.689,45.144,156.617z"/>
	<path d="M104.58,168.464v10.241H68.665v-10.241h9.44v-23.97h-8.86v-10.241H93.03v11.296c0.914-3.244,2.997-6.053,6.25-8.426
		c3.251-2.373,7.093-3.559,11.523-3.559c0.738,0,1.617,0.016,2.637,0.046v13.409c-4.113,0-7.472,0.398-10.073,1.194
		c-2.603,0.796-4.747,2.542-6.435,5.234c-1.687,2.694-2.531,5.879-2.531,9.552v5.464H104.58z"/>
	<path d="M145.135,179.715c-7.524,0-13.879-2.073-19.065-6.222c-5.187-4.147-7.778-9.835-7.778-17.06
		c0-7.224,2.591-12.911,7.778-17.06c5.186-4.147,11.541-6.222,19.065-6.222c7.559,0,13.923,2.074,19.091,6.222
		c5.168,4.149,7.753,9.836,7.753,17.06c0,7.134-2.558,12.797-7.673,16.992C159.19,177.619,152.799,179.715,145.135,179.715z
		 M145.083,168.694c3.023,0,5.476-1.011,7.357-3.031c1.88-2.021,2.821-5.189,2.821-9.505c0-3.796-0.915-6.758-2.742-8.886
		c-1.829-2.128-4.307-3.192-7.436-3.192c-6.715,0-10.073,4.225-10.073,12.675c0,3.46,0.834,6.313,2.505,8.564
		C139.185,167.569,141.708,168.694,145.083,168.694z"/>
	<path d="M179.942,144.494v-10.241h24.101v4.133c4.922-3.215,9.915-4.822,14.978-4.822c10.301,0,15.453,5.725,15.453,17.174v17.725
		h7.7v10.241h-23.996v-26.91c0-2.417-0.378-4.071-1.134-4.959c-0.757-0.887-1.996-1.332-3.719-1.332
		c-3.024,0-6.117,0.964-9.282,2.893v20.067h7.858v10.241h-31.959v-10.241h7.805v-23.97H179.942z"/>
	<path d="M245.654,144.494v-10.241h6.486v-6.98l16.297-10.194v17.174h9.386v10.241h-9.386v19.279c0,1.748,0.254,2.922,0.764,3.52
		c0.51,0.598,1.678,0.896,3.507,0.896c1.512,0,3.217-0.305,5.115-0.917v9.827c-4.184,1.501-8.279,2.25-12.287,2.25
		c-8.931,0-13.396-3.862-13.396-11.587v-23.267H245.654z"/>
	<path d="M311.735,179.715c-7.524,0-13.88-2.073-19.064-6.222c-5.187-4.147-7.779-9.835-7.779-17.06
		c0-7.224,2.593-12.911,7.779-17.06c5.185-4.147,11.54-6.222,19.064-6.222c7.558,0,13.923,2.074,19.091,6.222
		c5.169,4.149,7.753,9.836,7.753,17.06c0,7.134-2.558,12.797-7.674,16.992C325.79,177.619,319.4,179.715,311.735,179.715z
		 M311.682,168.694c3.023,0,5.476-1.011,7.356-3.031c1.881-2.021,2.822-5.189,2.822-9.505c0-3.796-0.915-6.758-2.743-8.886
		s-4.308-3.192-7.436-3.192c-6.717,0-10.074,4.225-10.074,12.675c0,3.46,0.836,6.313,2.507,8.564
		C305.784,167.569,308.306,168.694,311.682,168.694z"/>
</g>
<path d="M346.772,73.464l-34.244,49.453l-34.3-49.53c-12.975-17.304-11.115-45.73,3.986-60.829C290.309,4.462,301.077,0,312.528,0
	s22.219,4.462,30.318,12.559C357.948,27.657,359.808,56.083,346.772,73.464z"/>
<path fill="#FFFFFF" stroke="#FFFFFF" stroke-width="4" stroke-miterlimit="10" d="M311.682,52.694c3.023,0,5.476-1.011,7.356-3.031
	c1.881-2.021,2.822-5.189,2.822-9.505c0-3.796-0.915-6.758-2.743-8.886s-4.308-3.192-7.436-3.192
	c-6.717,0-10.074,4.225-10.074,12.675c0,3.46,0.836,6.313,2.507,8.564C305.784,51.569,308.306,52.694,311.682,52.694z"/>
</svg>
