<?xml version="1.0" encoding="utf-8"?>
<!-- Generator: Adobe Illustrator 15.0.0, SVG Export Plug-In . SVG Version: 6.00 Build 0)  -->
<!DOCTYPE svg PUBLIC "-//W3C//DTD SVG 1.1//EN" "http://www.w3.org/Graphics/SVG/1.1/DTD/svg11.dtd">
<svg version="1.1" id="Layer_1" xmlns="http://www.w3.org/2000/svg" xmlns:xlink="http://www.w3.org/1999/xlink" x="0px" y="0px"
	 width="161.683px" height="62.303px" viewBox="0 0 161.683 62.303" enable-background="new 0 0 161.683 62.303"
	 xml:space="preserve">
<g>
	<path fill="#FFAA18" d="M156.061,8.926c-2.756-2.756-6.421-4.275-10.319-4.275c-3.897,0-7.562,1.519-10.318,4.275
		c-5.14,5.139-5.772,14.814-1.356,20.705l11.674,16.858l11.656-16.833C161.834,23.74,161.202,14.064,156.061,8.926z M147.958,21.555
		c-0.641,0.688-1.475,0.691-2.504,0.691c-1.149,0-2.008-0.042-2.576-0.809c-0.569-0.766-0.854-1.737-0.854-2.915
		c0-2.876,1.143-3.974,3.429-3.974c1.064,0,1.909,0.021,2.531,0.746c0.622,0.725,0.934,1.732,0.934,3.024
		C148.918,19.789,148.598,20.867,147.958,21.555z"/>
</g>
<g>
	<linearGradient id="SVGID_1_" gradientUnits="userSpaceOnUse" x1="15.8247" y1="32.0664" x2="127.1582" y2="32.0664">
		<stop  offset="0" style="stop-color:#CC0000"/>
		<stop  offset="0.5" style="stop-color:#EC1C24"/>
		<stop  offset="1" style="stop-color:#FFAA18"/>
	</linearGradient>
	<path fill="url(#SVGID_1_)" d="M41.108,44.731c1.423,0,2.134,0.712,2.134,2.135v7.969c0,1.352-0.711,2.135-2.134,2.135H5.745
		c-1.708,0-2.348-1.067-1.494-2.562l19.425-34.153c0.284-0.498,0.071-0.854-0.498-0.854H9.587c-1.352,0-2.134-0.782-2.134-2.134
		V9.298c0-1.423,0.783-2.134,2.134-2.134h34.295c1.708,0,2.348,1.067,1.494,2.562l-19.78,34.153
		c-0.285,0.498-0.071,0.854,0.498,0.854H41.108z"/>
	<linearGradient id="SVGID_2_" gradientUnits="userSpaceOnUse" x1="15.8247" y1="31.4263" x2="127.1582" y2="31.4263">
		<stop  offset="0" style="stop-color:#CC0000"/>
		<stop  offset="0.5" style="stop-color:#EC1C24"/>
		<stop  offset="1" style="stop-color:#FFAA18"/>
	</linearGradient>
	<path fill="url(#SVGID_2_)" d="M83.867,54.551c0,1.565-0.712,2.419-2.135,2.419h-7.969c-1.352,0-2.134-0.711-2.134-2.135v-6.19
		c0-1.423-0.711-2.135-2.135-2.135h-6.119c-1.352,0-2.135,0.712-2.135,2.135v6.19c0,1.423-0.711,2.135-2.135,2.135h-7.969
		c-1.352,0-2.135-0.854-2.135-2.419V24.382c0-8.965,1.423-18.5,17.432-18.5c16.009,0,17.433,9.534,17.433,18.5V54.551z
		 M71.629,24.382c0-3.416-0.498-5.123-5.194-5.123c-4.696,0-5.194,1.708-5.194,5.123v7.755c0,1.352,0.783,2.135,2.135,2.135h6.119
		c1.423-0.071,2.135-0.783,2.135-2.206V24.382z"/>
	<linearGradient id="SVGID_3_" gradientUnits="userSpaceOnUse" x1="15.8247" y1="32.0664" x2="127.1582" y2="32.0664">
		<stop  offset="0" style="stop-color:#CC0000"/>
		<stop  offset="0.5" style="stop-color:#EC1C24"/>
		<stop  offset="1" style="stop-color:#FFAA18"/>
	</linearGradient>
	<path fill="url(#SVGID_3_)" d="M108.411,7.164c12.665,0,17.788,5.408,17.788,17.076c0,11.669-5.123,17.077-17.788,17.077h-3.416
		c-1.352,0-2.134,0.711-2.134,2.134v11.384c0,1.423-0.712,2.135-2.135,2.135h-7.969c-1.352,0-2.135-0.783-2.135-2.135V9.369
		c0-1.423,0.711-2.134,2.135-2.206H108.411z M108.838,29.078c3.415,0,5.123-0.427,5.123-4.838c0-4.411-1.708-4.838-5.123-4.838
		h-3.842c-1.352,0-2.134,0.712-2.134,2.135v5.408c0,1.352,0.782,2.134,2.134,2.134H108.838z"/>
</g>
<circle fill="#FFAA18" cx="145.741" cy="53.747" r="5.102"/>
</svg>
